<?xml version="1.0" encoding="UTF-8" standalone="no"?>
<!-- Created with Inkscape (http://www.inkscape.org/) -->

<svg
   xmlns:dc="http://purl.org/dc/elements/1.1/"
   xmlns:cc="http://creativecommons.org/ns#"
   xmlns:rdf="http://www.w3.org/1999/02/22-rdf-syntax-ns#"
   xmlns:svg="http://www.w3.org/2000/svg"
   xmlns="http://www.w3.org/2000/svg"
   xmlns:sodipodi="http://sodipodi.sourceforge.net/DTD/sodipodi-0.dtd"
   xmlns:inkscape="http://www.inkscape.org/namespaces/inkscape"
   version="1.1"
   id="svg64"
   width="1066.6667"
   height="1066.6667"
   viewBox="0 0 1066.6667 1066.6667"
   sodipodi:docname="bbe.svg"
   inkscape:version="0.92.1 r15371">
  <metadata
     id="metadata70">
    <rdf:RDF>
      <cc:Work
         rdf:about="">
        <dc:format>image/svg+xml</dc:format>
        <dc:type
           rdf:resource="http://purl.org/dc/dcmitype/StillImage" />
        <dc:title />
      </cc:Work>
    </rdf:RDF>
  </metadata>
  <defs
     id="defs68">
    <inkscape:path-effect
       effect="bspline"
       id="path-effect242"
       is_visible="true"
       weight="33.333333"
       steps="2"
       helper_size="0"
       apply_no_weight="true"
       apply_with_weight="true"
       only_selected="false" />
    <inkscape:path-effect
       effect="bspline"
       id="path-effect238"
       is_visible="true"
       weight="33.333333"
       steps="2"
       helper_size="0"
       apply_no_weight="true"
       apply_with_weight="true"
       only_selected="false" />
    <inkscape:path-effect
       effect="bspline"
       id="path-effect234"
       is_visible="true"
       weight="33.333333"
       steps="2"
       helper_size="0"
       apply_no_weight="true"
       apply_with_weight="true"
       only_selected="false" />
    <inkscape:path-effect
       effect="bspline"
       id="path-effect226"
       is_visible="true"
       weight="33.333333"
       steps="2"
       helper_size="0"
       apply_no_weight="true"
       apply_with_weight="true"
       only_selected="false" />
    <inkscape:path-effect
       effect="bspline"
       id="path-effect222"
       is_visible="true"
       weight="33.333333"
       steps="2"
       helper_size="0"
       apply_no_weight="true"
       apply_with_weight="true"
       only_selected="false" />
    <inkscape:path-effect
       effect="bspline"
       id="path-effect218"
       is_visible="true"
       weight="33.333333"
       steps="2"
       helper_size="0"
       apply_no_weight="true"
       apply_with_weight="true"
       only_selected="false" />
    <inkscape:path-effect
       effect="bspline"
       id="path-effect214"
       is_visible="true"
       weight="33.333333"
       steps="2"
       helper_size="0"
       apply_no_weight="true"
       apply_with_weight="true"
       only_selected="false" />
    <inkscape:path-effect
       effect="bspline"
       id="path-effect210"
       is_visible="true"
       weight="33.333333"
       steps="2"
       helper_size="0"
       apply_no_weight="true"
       apply_with_weight="true"
       only_selected="false" />
    <inkscape:path-effect
       effect="bspline"
       id="path-effect206"
       is_visible="true"
       weight="33.333333"
       steps="2"
       helper_size="0"
       apply_no_weight="true"
       apply_with_weight="true"
       only_selected="false" />
    <inkscape:path-effect
       effect="bspline"
       id="path-effect202"
       is_visible="true"
       weight="33.333333"
       steps="2"
       helper_size="0"
       apply_no_weight="true"
       apply_with_weight="true"
       only_selected="false" />
    <inkscape:path-effect
       effect="bspline"
       id="path-effect198"
       is_visible="true"
       weight="33.333333"
       steps="2"
       helper_size="0"
       apply_no_weight="true"
       apply_with_weight="true"
       only_selected="false" />
    <inkscape:path-effect
       effect="bspline"
       id="path-effect194"
       is_visible="true"
       weight="33.333333"
       steps="2"
       helper_size="0"
       apply_no_weight="true"
       apply_with_weight="true"
       only_selected="false" />
  </defs>
  <sodipodi:namedview
     pagecolor="#ffffff"
     bordercolor="#666666"
     borderopacity="1"
     objecttolerance="10"
     gridtolerance="10"
     guidetolerance="10"
     inkscape:pageopacity="0"
     inkscape:pageshadow="2"
     inkscape:window-width="1920"
     inkscape:window-height="972"
     id="namedview66"
     showgrid="false"
     inkscape:zoom="0.5276784"
     inkscape:cx="1226.5462"
     inkscape:cy="371.64702"
     inkscape:window-x="0"
     inkscape:window-y="30"
     inkscape:window-maximized="1"
     inkscape:current-layer="svg64"
     showguides="true"
     inkscape:guide-bbox="true" />
  <path
     style="fill:#000000;stroke-width:1.08250904"
     d="M 494.7527,58.142015 C 420.74371,138.83375 378.59662,248.52403 383.97501,358.30346 c -0.26931,77.18552 -1.42227,159.37565 35.65016,229.30968 33.18272,23.9883 51.66604,61.4167 27.106,99.07128 -11.06658,38.05088 -8.17973,78.19346 1.16991,116.12925 -5.10263,32.53279 -62.3693,25.78222 -77.82962,1.72042 -29.23294,-42.17816 50.6545,5.8008 32.10529,-36.77165 -7.02427,-41.03773 16.49527,-85.29043 16.69966,-120.78449 C 370.17789,594.52452 347.34209,520.965 355.58458,450.10965 356.07349,384.84982 332.15894,311.863 270.30749,280.57849 c -17.27645,-10.94372 -28.11357,-9.25873 -6.38115,4.16839 50.45461,43.63814 66.13719,122.27463 33.13358,180.9198 -27.82591,59.82472 -71.15951,121.16296 -56.39173,190.70558 6.92737,40.47037 30.9209,78.35636 66.26225,99.76976 7.75161,14.43856 46.65934,65.38038 8.22697,41.14451 -46.66697,-24.05959 -84.36908,-69.02498 -90.24162,-122.36406 -8.53654,-24.00655 -14.76226,-54.70829 -36.13347,-70.0906 33.26758,64.69266 23.68415,150.38439 83.14169,201.06379 40.44644,38.91444 101.65953,66.56073 157.2853,45.4494 33.0488,-24.34891 74.99828,-8.73494 109.79536,2.23712 49.48917,5.78712 99.72868,-20.08707 131.57381,-56.90348 46.79017,-58.84676 32.92242,-140.70948 67.33828,-205.17145 -41.78981,58.23618 -32.76818,143.67682 -92.63554,190.61957 -9.62236,12.8241 -43.86235,23.84079 -22.75191,-2.63617 13.48239,-42.70955 52.11497,-72.17736 62.11377,-116.61444 26.45868,-85.09514 -0.43945,-178.57634 -53.08424,-247.97499 -29.93182,-39.90069 -57.50073,-85.43961 -56.123,-137.12523 -0.60951,-13.63611 2.44632,-60.96079 -4.18622,-24.84351 -12.92145,58.24296 -10.10933,120.52885 13.56257,175.68363 16.37498,65.07589 2.1357,137.50221 -34.50884,192.96361 -29.23013,27.82368 -11.3,66.95136 -5.17193,99.6691 8.06742,21.19746 -5.94019,63.51668 6.60672,71.1967 16.22537,-9.47122 47.76725,-10.65062 26.13539,15.08843 -17.49802,26.62619 -92.5737,20.53423 -68.93671,-20.42435 8.59355,-44.00634 4.4251,-90.80331 -13.88948,-131.89144 1.28794,-43.70524 43.53155,-71.85503 48.35646,-115.03777 C 558.34045,485.3337 547.77983,421.9029 505.53212,381.58169 467.3318,338.67124 424.89833,287.63088 433.55266,225.93695 439.65143,166.15048 467.85773,110.89078 494.7527,58.142015 Z M 577.40505,225.6596 c -2.16728,2.8728 2.86524,2.90949 0,0 z"
     id="path74"
     inkscape:connector-curvature="0" />
</svg>
