<?xml version="1.0" encoding="UTF-8" standalone="no"?>
<!-- Created with Inkscape (http://www.inkscape.org/) -->

<svg
   xmlns:dc="http://purl.org/dc/elements/1.1/"
   xmlns:cc="http://creativecommons.org/ns#"
   xmlns:rdf="http://www.w3.org/1999/02/22-rdf-syntax-ns#"
   xmlns:svg="http://www.w3.org/2000/svg"
   xmlns="http://www.w3.org/2000/svg"
   xmlns:sodipodi="http://sodipodi.sourceforge.net/DTD/sodipodi-0.dtd"
   xmlns:inkscape="http://www.inkscape.org/namespaces/inkscape"
   width="210mm"
   height="297mm"
   viewBox="0 0 210 297"
   version="1.1"
   id="svg8"
   inkscape:version="0.92.1 r15371"
   sodipodi:docname="Doodle.svg">
  <defs
     id="defs2" />
  <sodipodi:namedview
     id="base"
     pagecolor="#ffffff"
     bordercolor="#666666"
     borderopacity="1.0"
     inkscape:pageopacity="0.0"
     inkscape:pageshadow="2"
     inkscape:zoom="0.7"
     inkscape:cx="815.19406"
     inkscape:cy="-85.612408"
     inkscape:document-units="mm"
     inkscape:current-layer="layer1"
     showgrid="false"
     showguides="false"
     inkscape:window-width="1920"
     inkscape:window-height="972"
     inkscape:window-x="0"
     inkscape:window-y="30"
     inkscape:window-maximized="1" />
  <metadata
     id="metadata5">
    <rdf:RDF>
      <cc:Work
         rdf:about="">
        <dc:format>image/svg+xml</dc:format>
        <dc:type
           rdf:resource="http://purl.org/dc/dcmitype/StillImage" />
        <dc:title />
      </cc:Work>
    </rdf:RDF>
  </metadata>
  <g
     inkscape:label="Layer 1"
     inkscape:groupmode="layer"
     id="layer1">
    <path
       style="fill:#000000;stroke-width:1.69245565"
       d="m 127.81894,53.209205 c 5.53235,4.718462 10.50879,10.69059 9.1322,18.476831 -0.95038,3.126805 1.08424,17.968841 2.48217,13.45375 -0.85692,-6.152498 2.23561,-20.095878 7.69967,-12.957994 0.55763,-10.24947 -10.77018,-16.23756 -19.31404,-18.972587 z m -7.57473,1.849035 c -5.06196,0.109558 -10.68685,6.76656 -2.58266,3.260274 1.05469,-1.131786 3.08715,-1.601673 3.58307,-3.190264 -0.32836,-0.05568 -0.66308,-0.07721 -1.00041,-0.07009 z m 5.17883,2.724371 c -12.81734,3.053433 12.97955,2.570163 0,0 z m -16.35252,2.890078 c -4.88744,3.174989 1.59645,12.306776 0.57596,3.182185 l -0.14128,-2.358472 -0.43256,-0.823713 z m 20.8315,1.896001 c 2.66737,9.434682 -2.13786,21.790236 -13.01712,24.844578 -15.0168,6.483759 -34.758114,10.439977 -41.401217,27.270822 -1.160254,3.39614 -1.297532,7.01036 -1.594993,10.59056 -12.724961,8.89389 -22.666369,21.35611 -26.964414,36.48615 -7.651758,24.13977 -4.259218,52.70874 14.141196,71.42673 0.54916,0.60081 1.109398,1.19367 1.677797,1.77981 -4.489651,-2.42187 -8.030753,-5.39806 -10.269272,-7.27363 C 27.39976,200.75254 20.824389,201.86193 0.37224546,208.03979 24.447208,207.9462 28.726642,217.04471 36.439145,226.65413 c 6.797761,10.0438 17.674677,19.21593 30.763067,17.55379 2.141036,-0.46174 3.405502,-1.01185 4.002024,-1.63281 9.701528,7.58901 21.170567,13.0689 33.292224,15.11599 -15.348105,2.35358 -24.89402,-5.57383 -44.887245,-6.05873 -10.530091,1.19103 -24.284526,10.74004 -23.428877,16.8714 8.606336,-8.42263 21.43308,-7.79165 32.270029,-4.70957 16.757475,1.31152 37.164943,10.06826 45.203373,-5.23334 2.20583,0.0454 4.42298,-0.0239 6.64621,-0.22746 20.9501,0.81523 41.27426,-8.83536 54.75301,-24.30132 -4.72565,8.69762 -9.79698,17.17465 -17.41043,23.84987 -7.97659,8.35401 -15.77786,20.68754 -9.35468,32.17514 1.91398,5.6324 7.78619,11.78489 4.53826,1.77863 -2.06493,-14.3414 12.022,-23.49228 20.06966,-33.37322 8.42948,-8.625 14.97545,-21.20404 10.05898,-33.19077 0.0224,-0.24695 -0.18774,-0.92217 -0.41553,-1.64039 1.62252,-2.77313 3.04698,-5.66386 4.24532,-8.65741 3.11168,-7.1725 5.22935,-14.90693 6.1153,-22.75072 1.31661,8.08123 2.15563,16.16273 -0.80704,24.09937 -3.64681,13.76177 -4.59201,32.23904 8.92244,41.23229 3.43448,3.18721 13.53818,5.96658 5.0504,-0.16025 -10.67655,-11.53304 -4.59904,-27.97239 -1.94084,-41.34322 1.9919,-11.07888 0.97494,-23.57631 -7.24327,-32.04773 -1.22827,-1.61227 -2.45659,-3.22429 -3.68507,-4.8362 -0.69619,-9.85257 -3.55498,-19.48062 -9.06004,-27.9802 -7.4825,-13.4416 -17.73983,-26.08936 -32.38962,-32.29611 -5.49379,-2.42694 -11.23026,-4.55768 -17.10808,-6.10126 7.61545,-0.86476 15.2034,-1.21514 22.70967,1.40609 11.83016,1.52367 26.80881,1.27417 33.46709,-10.35306 1.56461,-2.35786 3.91566,-4.881778 4.01768,-7.735903 -8.68412,7.760093 -20.42142,10.669733 -31.85609,7.427603 -13.59922,-2.25131 -30.16082,-7.884846 -41.83794,2.26655 -1.31549,1.47435 -2.63142,2.94845 -3.94723,4.42276 -11.93339,0.71355 -23.896254,4.09703 -34.569971,9.7296 8.701641,-8.0359 18.250351,-15.19337 29.925921,-18.36694 12.30626,-4.578532 23.24791,-15.468978 22.36148,-29.245958 0.0684,-3.573608 -0.56578,-9.171061 -5.00731,-9.771952 z m -23.50245,7.804692 c 1.29164,5.49219 10.90949,5.314938 2.84795,1.243466 L 107.24785,70.6129 Z m 13.40706,49.151468 c 35.54254,0.14665 67.05545,32.35189 65.54239,67.44326 -0.029,31.43515 -26.88579,59.67994 -58.5971,62.25643 -22.78224,3.70315 -46.380181,-6.15845 -60.715046,-23.7117 -16.127926,-21.74252 -17.698977,-50.41769 -6.156693,-71.43805 12.078006,-20.25849 35.063615,-34.30504 59.085759,-34.54736 0.28047,-0.003 0.56091,-0.004 0.84069,-0.003 z m -41.94186,105.7984 c -14.401667,-21.12771 -15.845212,-62.10639 5.730445,-79.66577 13.791519,-12.68728 34.870345,-15.91267 52.654515,-11.03924 30.39335,8.84527 47.00725,47.25619 31.36626,74.67416 -7.73776,16.02287 -24.60323,25.12148 -41.59117,28.73946 -4.89205,0.83661 -7.394,4.02614 -13.17593,7.05472 15.08157,0.20878 36.70182,-4.94411 47.29913,-15.90724 11.64196,-10.45957 20.22456,-25.33201 18.58377,-41.3019 0.7044,-14.23288 -1.59113,-29.59855 -12.17656,-40.17681 -11.33977,-13.79238 -26.8557,-23.41677 -46.77602,-22.82603 -72.026541,7.72186 -63.387305,86.76127 -41.91444,100.44865 z m 43.41993,-91.31517 c -8.00323,1.36368 -1.6406,5.6838 1.92178,0.30895 l -0.51203,-0.23892 -1.40898,-0.0691 z m -9.69645,0.74126 c -8.43326,2.21543 2.15689,3.58344 0,0 z m 18.22226,0.93847 c -8.00094,1.36448 -1.63906,5.68301 1.92242,0.30861 l -0.51275,-0.23816 -1.40888,-0.07 z m 8.48346,1.72907 c -11.0813,0.95378 -1.19579,6.64254 1.32396,0.40081 z m 7.22808,3.78251 c -12.24266,2.01765 6.63905,5.27979 1.13695,0.25724 z m 6.25797,6.24649 c -14.04117,4.86482 11.52485,1.70376 0,0 z m 4.6901,5.01264 c -11.8097,4.49517 13.65042,2.73171 0,0 z m 2.26488,6.76116 -0.003,4.2e-4 0.003,3.7e-4 c 2.1e-4,-1.7e-4 2.6e-4,-5.8e-4 3.3e-4,-7.8e-4 z m -5.2e-4,7.9e-4 c -3.27618,5.32781 13.5376,5.9155 3.66992,0.60693 l -1.62769,-0.39103 z m 5.48961,8.37484 c -5.95555,4.94838 11.67719,8.23715 2.61789,0.57196 l -1.3272,-0.48107 z m 0.93933,8.45752 c -2.10061,4.9346 11.17469,6.0686 3.2041,0.94146 l -1.96948,-0.68282 z m 1.26863,6.84319 c -0.12662,0.0102 -0.12725,0.0475 -0.0441,0.10047 0.0133,-0.0343 0.0261,-0.0674 0.0441,-0.10047 z m -0.0441,0.10047 c -3.05694,6.82579 11.15637,11.99968 4.29406,4.18852 -2.31207,-1.6898 -3.73354,-3.82089 -4.29406,-4.18852 z m -0.61123,7.99483 c -3.23721,4.69445 6.67914,15.74708 2.92514,4.12648 -0.58712,-1.44532 -1.18051,-3.56414 -2.92514,-4.12648 z m -2.43168,9.04419 c -3.15994,4.95913 4.21059,13.94631 2.17799,3.05697 -0.28576,-1.19299 -0.78474,-2.70505 -2.17799,-3.05697 z m -3.76746,8.64437 c -5.81728,4.68777 0.52103,13.65481 2.22192,3.34 -0.0946,-1.31145 -0.61748,-3.17418 -2.22192,-3.34 z m -6.47382,8.37946 c -2.81864,6.69476 2.89038,6.85797 0,0 z m -4.70091,4.74354 c -5.6537,2.60333 -1.63034,9.83054 0.305,1.43947 l 0.075,-0.97846 -0.38015,-0.4606 z m -67.918732,4.56038 c -14.686726,4.4119 19.406306,3.28096 0,0 z m 59.159932,2.34535 c -10.1334,4.8943 0.35615,5.78209 0,0 z m -47.528877,3.31672 c -2.510612,0.0725 -15.503025,3.08027 -6.680822,2.51146 2.603858,0.22748 15.849259,0.31809 6.680822,-2.51146 z m 5.506251,7.40739 c 1.853541,0.0956 9.751496,-2.9004 4.045486,-3.88373 -4.097785,-1.8479 -15.544422,3.23703 -4.045486,3.88373 z m 13.863276,-1.28576 c -4.41193,-0.0313 -18.192753,6.0527 -8.34686,4.89493 7.28354,-3.32671 24.96079,-5.45509 8.34682,-4.89324 z"
       id="path74"
       inkscape:export-xdpi="96"
       inkscape:export-ydpi="96"
       inkscape:connector-curvature="0"
       sodipodi:nodetypes="ccccccccscccccccccccccccccccccccccccccccccccccccccccccccccccccccccccccccsccccccccccccccccccccccccccccccccccccccccccccccccccccccccccccccccccccccccccccssscsccccccc" />
    <path
       sodipodi:nodetypes="ccccccccccccccccccccccccccccccc"
       inkscape:connector-curvature="0"
       id="path74-3"
       d="m 114.68148,143.28905 c 12.16451,-0.1645 24.5327,4.29333 32.90064,13.15519 11.38399,11.46713 15.70887,29.50991 9.54398,44.53514 -5.69531,14.78463 -19.98705,26.09347 -36.04877,27.72366 -7.65183,1.6675 -15.97599,-0.77734 -23.080352,-3.43118 -3.461779,-2.07232 -6.091176,-3.91119 -8.665897,-8.78464 3.072207,3.11048 4.413148,4.07975 6.974607,5.56338 -0.817104,-1.86755 -1.52597,-3.02172 -2.397675,-5.56338 1.945933,2.79481 6.851437,5.7806 7.980977,6.79642 -1.47288,-2.96213 -2.206676,-4.41218 -2.967849,-6.86385 3.322389,4.04539 8.082449,6.72523 10.275919,8.15758 -1.03072,-2.27583 -4.42087,-5.32979 -5.65068,-8.09015 4.27642,3.87281 10.26838,6.25549 12.75599,7.60637 32.09956,-2.28855 52.468,-35.71146 30.10566,-62.79114 4.70679,6.95932 6.68051,14.15063 7.86509,20.54716 1.33717,19.40346 -13.1451,33.55759 -28.36331,39.20118 -6.45348,1.84805 -15.00521,-0.28103 -18.78987,-4.56357 11.99727,0.20786 21.14451,-8.33947 24.94968,-15.82368 5.34108,-9.32893 5.82489,-22.14837 0.64927,-31.52127 -9.80116,-17.17558 -25.1443,-19.0204 -43.29055,-14.62216 9.979037,-9.77094 15.65309,-9.92302 25.25314,-11.23106 z m -9.67458,12.28849 c 6.91529,-0.0658 13.28184,3.62123 18.41253,7.90079 9.17247,7.85124 11.85034,21.4922 7.33007,32.43729 -4.81565,12.19373 -18.8697,19.8991 -31.941524,17.56635 -2.918124,-0.31723 -8.475914,-2.09228 -9.379636,-3.4379 9.666019,2.32079 20.70938,0.33138 27.75121,-6.94612 4.66317,-4.3252 7.9413,-10.26649 7.82203,-16.69668 0.8323,-10.40931 -5.1901,-20.91439 -14.77452,-25.43395 -6.38823,-3.08459 -13.910195,-3.31758 -20.780281,-1.99588 4.462922,-3.14081 10.225895,-3.51075 15.560121,-3.3939 z"
       style="fill:#000000;stroke-width:0.90120858"
       inkscape:export-xdpi="96"
       inkscape:export-ydpi="96" />
  </g>
</svg>
