<?xml version="1.0" encoding="UTF-8" standalone="no"?>
<svg
   xmlns:dc="http://purl.org/dc/elements/1.1/"
   xmlns:cc="http://creativecommons.org/ns#"
   xmlns:rdf="http://www.w3.org/1999/02/22-rdf-syntax-ns#"
   xmlns:svg="http://www.w3.org/2000/svg"
   xmlns="http://www.w3.org/2000/svg"
   viewBox="0 0 1333.3333 1333.3333"
   height="1333.3333"
   width="1333.3333"
   id="svg67"
   version="1.1">
  <metadata
     id="metadata73">
    <rdf:RDF>
      <cc:Work
         rdf:about="">
        <dc:format>image/svg+xml</dc:format>
        <dc:type
           rdf:resource="http://purl.org/dc/dcmitype/StillImage" />
        <dc:title></dc:title>
      </cc:Work>
    </rdf:RDF>
  </metadata>
  <defs
     id="defs71" />
  <path
     id="path77"
     d="M 1016.8295,869.76327 C 954.79126,861.95877 904.45862,828.01 877.84814,776.02175 864.14045,749.24136 857.03439,717.59153 858.51248,689.9022 c 0.9168,-17.17466 -1.10427,-29.38377 -7.35824,-44.45037 -18.42581,-44.39015 -52.32772,-73.68557 -98.33954,-84.97754 -16.11341,-3.95446 -44.38295,-3.95446 -60.49636,0 -53.9858,13.2489 -93.77155,53.99605 -105.04265,107.58091 -1.49949,7.12886 -2.72634,16.35714 -2.72634,20.50727 v 7.5457 H 532.65568 480.762 l -0.77771,-8.1378 c -3.05345,-31.95053 -29.22867,-58.39764 -61.12066,-61.75553 l -7.48678,-0.78827 V 573.5301 521.63363 h 7.01795 c 15.81779,0 42.33601,-7.6636 59.38654,-17.16237 14.66039,-8.16721 32.5519,-23.53385 42.9995,-36.93135 10.42897,-13.37361 20.20519,-34.44925 24.95799,-53.80453 3.90837,-15.91645 3.90837,-44.3214 0,-60.23783 -4.7528,-19.35529 -14.52902,-40.43092 -24.95799,-53.80454 -10.4476,-13.3975 -28.33911,-28.76413 -42.9995,-36.93135 -17.05053,-9.49876 -43.56875,-17.16237 -59.38654,-17.16237 h -7.01795 v -51.89647 -51.89647 l 7.48678,-0.78828 c 31.72259,-3.34005 57.76445,-29.3819 61.1045,-61.104494 l 0.78828,-7.48678 h 51.89646 51.89648 v 7.01794 c 0,15.8178 7.66361,42.336014 17.16237,59.386554 8.16721,14.66039 23.53385,32.5519 36.93134,42.99948 13.37362,10.42897 34.44927,20.20521 53.80454,24.958 15.91645,3.90838 44.32139,3.90838 60.23783,0 19.35528,-4.75279 40.43092,-14.52903 53.80454,-24.958 13.3975,-10.44758 28.76413,-28.33909 36.93135,-42.99948 9.49876,-17.05054 17.16238,-43.568754 17.16238,-59.386554 v -7.01794 h 51.89645 51.89648 l 0.78827,7.48678 c 3.3579,31.891994 29.80499,58.067204 61.7555,61.120664 l 8.1378,0.77771 v 51.89367 51.89367 h -7.5457 c -4.1501,0 -13.3784,1.22686 -20.5072,2.72635 -53.5849,11.27109 -94.33206,51.05684 -107.58094,105.04264 -3.95447,16.11342 -3.95447,44.38295 0,60.49636 9.54604,38.89771 35.32144,73.16989 68.05089,90.48369 22.59925,11.95496 36.89975,15.51302 66.93195,16.65305 36.2566,1.37633 55.3432,5.77846 80.9749,18.67607 17.852,8.98294 33.202,20.33432 47.6002,35.20033 19.1982,19.82208 30.1704,37.63558 39.2518,63.72563 7.1561,20.55912 9.1427,32.91285 9.1427,56.85374 0,23.93788 -1.9867,36.29487 -9.139,56.84304 -13.1267,37.71202 -35.8461,67.0787 -69.251,89.51233 -16.0821,10.80016 -44.0397,21.79935 -65.1649,25.63745 -11.1289,2.022 -42.129,3.4283 -50.9924,2.3133 z M 1056.4839,763.738 c 27.7186,-8.56141 48.8397,-37.80849 48.8397,-67.62983 0,-16.51051 -7.363,-35.42739 -18.5738,-47.71959 -13.856,-15.19251 -30.7595,-22.82554 -50.3895,-22.75423 -31.7548,0.11536 -57.78617,18.54341 -67.93338,48.09103 -3.93463,11.45725 -4.21729,32.40233 -0.58321,43.21558 4.12454,12.27258 10.70727,22.65266 19.70108,31.06593 11.36792,10.63413 23.63691,16.5637 39.05011,18.87283 6.7157,1.00611 21.4867,-0.54652 29.889,-3.14172 z M 560.29821,682.76217 C 552.85801,609.22029 497.14299,553.20679 424.07183,545.80604 l -7.48678,-0.75827 v 32.29172 32.29173 l 10.99642,2.07601 c 16.94767,3.19955 29.01763,9.78166 42.48995,23.17105 6.14338,6.10555 12.75401,13.99194 14.69027,17.52528 4.48023,8.17562 9.55538,23.02355 10.59938,31.00963 l 0.80851,6.18474 h 32.4101 32.4101 z m 389.50008,0.65102 c 4.15568,-30.78619 28.039,-59.43066 57.80891,-69.33314 4.5954,-1.52859 11.187,-3.11463 14.648,-3.52455 l 6.2928,-0.74527 V 577.50171 545.1932 l -6.8358,0.69158 c -57.70987,5.83847 -105.26418,41.21802 -126.40788,94.0452 -4.30275,10.75032 -8.97876,30.07427 -10.5221,43.48321 l -0.71183,6.18474 h 32.44653 32.44652 z m -232.43997,-173.498 v -23.43688 l -3.58063,-0.009 c -7.70901,-0.0196 -26.30893,-5.55783 -38.08492,-11.33993 -10.68053,-5.24421 -14.1579,-7.86191 -25.46751,-19.17153 -11.30963,-11.30994 -13.92733,-14.78731 -19.17154,-25.46783 -5.57306,-11.35029 -11.31777,-30.31391 -11.33993,-37.4339 -0.009,-2.92928 -0.0118,-2.92962 -23.446,-2.92962 h -23.43688 v 4.13019 c 0,2.2716 0.91886,9.15618 2.04192,15.29907 11.13974,60.9319 58.19404,108.85578 119.04861,121.2487 6.08709,1.23962 13.85055,2.31991 17.25215,2.40064 l 6.18473,0.14676 z m 31.1477,21.39495 c 20.20024,-3.69306 41.9629,-12.64727 59.24411,-24.37589 10.2222,-6.93772 26.72475,-22.82377 34.70647,-33.40991 7.86584,-10.43245 18.03354,-29.91011 22.46459,-43.03412 3.51068,-10.39798 7.38094,-29.39728 7.38094,-36.23332 v -4.13019 h -23.43687 c -23.43418,0 -23.43688,3.4e-4 -23.44601,2.92961 -0.0222,7.11998 -5.76687,26.08361 -11.33994,37.4339 -5.2442,10.68053 -7.86191,14.15789 -19.17153,25.4675 -11.30961,11.30962 -14.78698,13.92732 -25.46751,19.17154 -11.35028,5.57306 -30.3139,11.31777 -37.4339,11.33993 -2.92927,0.009 -2.92961,0.0118 -2.92961,23.446 v 23.43688 h 4.13019 c 2.2716,0 9.15619,-0.91887 15.29907,-2.04193 z m 2.05455,-60.85418 c 14.4032,-4.75905 25.57646,-11.65774 36.38208,-22.46336 10.74845,-10.74846 17.64349,-21.88017 22.53527,-36.38209 3.12894,-9.27587 3.51366,-12.34102 3.51366,-27.99405 0,-15.65303 -0.38472,-18.71818 -3.51366,-27.99404 -4.89178,-14.50192 -11.78682,-25.63364 -22.53527,-36.38209 -10.74846,-10.74845 -21.88016,-17.64349 -36.38208,-22.53528 -9.27588,-3.12894 -12.34101,-3.51365 -27.99405,-3.51365 -15.65304,0 -18.71817,0.38471 -27.99405,3.51365 -14.50192,4.89179 -25.63363,11.78683 -36.38208,22.53528 -17.22249,17.22249 -25.46983,36.35408 -26.46488,61.39137 -0.51188,12.87996 -0.18273,15.97772 2.80413,26.39042 4.06776,14.18095 7.63328,21.47815 15.80815,32.35316 11.37177,15.12778 27.53334,26.02492 47.54183,32.05568 9.69585,2.92242 12.88706,3.26902 26.63998,2.89344 12.60975,-0.34437 17.63446,-1.09079 26.04097,-3.86844 z M 619.71379,374.82763 c 0.0196,-7.70901 5.55783,-26.30892 11.33993,-38.08493 5.24421,-10.68052 7.86191,-14.15788 19.17154,-25.4675 11.30961,-11.30962 14.78698,-13.92732 25.46751,-19.17153 11.77599,-5.7821 30.37591,-11.32031 38.08492,-11.33993 l 3.58063,-0.009 v -23.43688 -23.43688 h -4.78121 c -7.41632,0 -26.09259,3.73731 -36.88434,7.38094 -13.12402,4.43105 -32.60168,14.59875 -43.03413,22.4646 -10.58613,7.98171 -26.47219,24.48426 -33.4099,34.70646 -14.66781,21.61152 -26.41783,55.05614 -26.41783,75.19387 v 4.78121 h 23.43688 23.43687 l 0.009,-3.58064 z m 252.58834,-1.20057 c 0,-20.13773 -11.75003,-53.58235 -26.41783,-75.19421 -6.93772,-10.2222 -22.82377,-26.72475 -33.40991,-34.70646 -10.43244,-7.86585 -29.9101,-18.03355 -43.03412,-22.4646 -10.39798,-3.51067 -29.39728,-7.38094 -36.23332,-7.38094 h -4.13019 v 23.43688 c 0,23.43417 3.4e-4,23.43688 2.92961,23.44601 7.12,0.0222 26.08362,5.76686 37.4339,11.33993 10.68053,5.24421 14.1579,7.86191 25.46751,19.17153 11.30962,11.30962 13.92733,14.78698 19.17153,25.4675 5.78211,11.77601 11.3203,30.37592 11.33994,38.08493 l 0.009,3.58064 h 23.43687 23.43687 z M 440.67295,218.76433 c 22.09457,-4.61626 43.35742,-14.37947 61.84732,-28.39824 12.82602,-9.72451 17.7054,-14.64753 27.84881,-28.09792 16.32695,-21.64992 27.22467,-49.66658 30.00786,-77.146404 l 0.75828,-7.48677 h -32.29173 -32.29173 l -2.07601,10.99641 c -3.27168,17.329784 -9.72304,29.007364 -23.80498,43.089294 -14.08194,14.08194 -25.75953,20.53331 -43.0893,23.805 l -10.99642,2.07601 v 32.29172 32.29173 l 7.48678,-0.75828 c 4.11773,-0.41704 11.58823,-1.61519 16.60112,-2.66255 z M 1028.548,189.69097 v -32.47144 l -6.1847,-0.80851 c -7.9861,-1.04401 -22.83407,-6.11917 -31.00968,-10.59939 -3.53335,-1.93627 -11.41974,-8.54688 -17.52529,-14.69027 -13.38938,-13.47231 -19.9715,-25.54228 -23.17104,-42.489954 l -2.07601,-10.99641 h -32.29174 -32.29172 l 0.75827,7.48677 c 3.51413,34.696664 19.50238,68.805874 43.50082,92.804314 23.68954,23.68955 58.99397,40.34681 91.82779,43.326 2.8645,0.25992 5.9406,0.57107 6.8357,0.69146 1.2644,0.17003 1.6276,-7.02672 1.6276,-32.25257 z"
     style="fill:#000000;stroke-width:1.3020488" />
  <path
     id="path83"
     d="m 1027.1999,142.38547 19.5431,0.29611 v 103.34181 l -18.3587,-0.88832"
     style="fill:#000000;stroke:#000000;stroke-width:1px;stroke-linecap:butt;stroke-linejoin:miter;stroke-opacity:1" />
  <path
     style="fill:#000000;stroke:#000000;stroke-width:1px;stroke-linecap:butt;stroke-linejoin:miter;stroke-opacity:1"
     d="m 1027.1999,142.38547 19.5431,0.29611 v 103.34181 l -18.3587,-0.88832"
     id="path85" />
  <path
     id="path87"
     d="m 584.39992,715.65127 -0.29611,-19.5431 H 480.762 l 0.88832,18.3587"
     style="fill:#000000;stroke:#000000;stroke-width:1px;stroke-linecap:butt;stroke-linejoin:miter;stroke-opacity:1" />
  <path
     style="fill:#000000;stroke:#000000;stroke-width:1px;stroke-linecap:butt;stroke-linejoin:miter;stroke-opacity:1"
     d="m 391.83375,625.27155 19.5431,-0.29611 1.93677,-102.76601 -20.24312,-0.78673"
     id="path89" />
  <path
     id="path91"
     d="m 391.83375,245.44427 19.5431,-0.29611 2.72194,-102.92305 -21.4994,-2.46176"
     style="fill:#000000;stroke:#000000;stroke-width:1px;stroke-linecap:butt;stroke-linejoin:miter;stroke-opacity:1" />
  <path
     style="fill:#000000;stroke:#000000;stroke-width:0.99869043px;stroke-linecap:butt;stroke-linejoin:miter;stroke-opacity:1"
     d="m 481.1827,52.883696 0.29533,19.5431 102.2338,3.140704 3.51099,-21.708784"
     id="path93" />
  <path
     id="path95"
     d="m 860.73871,52.883696 0.29611,19.5431 102.50429,2.721943 1.20548,-21.080643"
     style="fill:#000000;stroke:#000000;stroke-width:1px;stroke-linecap:butt;stroke-linejoin:miter;stroke-opacity:1" />
</svg>
