<?xml version="1.0" encoding="UTF-8" standalone="no"?>
<!-- Created with Inkscape (http://www.inkscape.org/) -->

<svg
   xmlns:dc="http://purl.org/dc/elements/1.1/"
   xmlns:cc="http://creativecommons.org/ns#"
   xmlns:rdf="http://www.w3.org/1999/02/22-rdf-syntax-ns#"
   xmlns:svg="http://www.w3.org/2000/svg"
   xmlns="http://www.w3.org/2000/svg"
   xmlns:sodipodi="http://sodipodi.sourceforge.net/DTD/sodipodi-0.dtd"
   xmlns:inkscape="http://www.inkscape.org/namespaces/inkscape"
   version="1.1"
   id="svg61"
   width="2000"
   height="2000"
   viewBox="0 0 2000 2000"
   sodipodi:docname="kingdom crown.svg"
   inkscape:version="0.92.1 r15371">
  <metadata
     id="metadata67">
    <rdf:RDF>
      <cc:Work
         rdf:about="">
        <dc:format>image/svg+xml</dc:format>
        <dc:type
           rdf:resource="http://purl.org/dc/dcmitype/StillImage" />
        <dc:title></dc:title>
      </cc:Work>
    </rdf:RDF>
  </metadata>
  <defs
     id="defs65" />
  <sodipodi:namedview
     pagecolor="#ffffff"
     bordercolor="#666666"
     borderopacity="1"
     objecttolerance="10"
     gridtolerance="10"
     guidetolerance="10"
     inkscape:pageopacity="0"
     inkscape:pageshadow="2"
     inkscape:window-width="1920"
     inkscape:window-height="972"
     id="namedview63"
     showgrid="false"
     inkscape:zoom="0.398"
     inkscape:cx="1000"
     inkscape:cy="1000"
     inkscape:window-x="0"
     inkscape:window-y="30"
     inkscape:window-maximized="1"
     inkscape:current-layer="svg61" />
  <path
     style="fill:#000000"
     d="M 139.72785,1019.4962 C 59.646946,748.48373 -5.7391543,526.58338 -5.5746543,526.38435 c 0.5439,-0.65777 99.9678003,81.60026 162.9088043,134.78199 150.10248,126.82845 272.04696,235.51126 361.00003,321.74056 36.53211,35.4136 57.21715,56.479 55.94166,56.9704 -3.28108,1.2642 -17.44788,9.902 -21.99962,13.4136 -2.9241,2.2559 -8.61326,7.5563 -12.64258,11.7785 -40.8032,42.7568 -40.22286,110.3376 1.30588,152.0703 32.11973,32.2774 79.05806,41.6669 121.0028,24.2053 15.96135,-6.6448 34.22688,-20.8602 44.97893,-35.0055 6.95092,-9.1446 15.38441,-26.6534 18.58923,-38.5933 2.42897,-9.0494 2.68413,-11.6636 2.68413,-27.5 0,-15.7213 -0.26542,-18.4865 -2.6114,-27.2058 -9.23691,-34.3308 -33.57796,-61.859 -66.18151,-74.8471 -7.48851,-2.9832 -21.10819,-6.1867 -31.91433,-7.5066 -3.89799,-0.4762 -4.75718,-0.9198 -4.38896,-2.2663 6.36001,-23.2565 243.34058,-840.17417 243.72708,-840.17417 0.5933,0 244.20841,841.13367 243.74841,841.59367 -0.1481,0.148 -4.3126,0.8024 -9.2545,1.4541 -45.2921,5.9728 -81.3547,37.5524 -93.2009,81.615 -2.3841,8.8679 -2.6447,11.5615 -2.6447,27.3372 0,15.8364 0.2551,18.4506 2.6841,27.5 3.2048,11.9399 11.6383,29.4487 18.5892,38.5933 32.512,42.7726 91.1794,55.8693 138.7874,30.9824 21.5349,-11.2572 41.0011,-32.3941 50.2132,-54.5226 13.9125,-33.4193 10.213,-72.9579 -9.6278,-102.8983 -9.7682,-14.7404 -29.15,-31.8842 -43.0357,-38.0664 -2.3375,-1.0407 -4.25,-2.2101 -4.25,-2.5987 0,-1.316 68.3424,-68.319 98.5124,-96.5816 111.4478,-104.40236 258.6058,-232.62187 419.4876,-365.50136 56.7685,-46.88768 62.0576,-51.1923 62.3881,-50.77565 0.1609,0.20292 -65.223,222.10415 -145.2977,493.11381 l -145.5904,492.7449 -581.50231,0.01 -581.50228,0.01 -145.60176,-492.75 z"
     id="path3777"
     inkscape:connector-curvature="0" />
</svg>
