<?xml version="1.0" encoding="UTF-8" standalone="no"?>
<!-- Created with Inkscape (http://www.inkscape.org/) -->

<svg
   xmlns:dc="http://purl.org/dc/elements/1.1/"
   xmlns:cc="http://creativecommons.org/ns#"
   xmlns:rdf="http://www.w3.org/1999/02/22-rdf-syntax-ns#"
   xmlns:svg="http://www.w3.org/2000/svg"
   xmlns="http://www.w3.org/2000/svg"
   xmlns:sodipodi="http://sodipodi.sourceforge.net/DTD/sodipodi-0.dtd"
   xmlns:inkscape="http://www.inkscape.org/namespaces/inkscape"
   width="1000"
   height="1000"
   id="svg2"
   version="1.1"
   inkscape:version="0.92.1 r15371"
   sodipodi:docname="LieRen.svg">
  <defs
     id="defs4" />
  <sodipodi:namedview
     id="base"
     pagecolor="#ffffff"
     bordercolor="#666666"
     borderopacity="1.0"
     inkscape:pageopacity="0.0"
     inkscape:pageshadow="2"
     inkscape:zoom="0.49497475"
     inkscape:cx="1587.3302"
     inkscape:cy="195.59813"
     inkscape:document-units="px"
     inkscape:current-layer="layer1"
     showgrid="false"
     inkscape:window-width="1920"
     inkscape:window-height="972"
     inkscape:window-x="0"
     inkscape:window-y="30"
     inkscape:window-maximized="1"
     showguides="true"
     inkscape:guide-bbox="true" />
  <metadata
     id="metadata7">
    <rdf:RDF>
      <cc:Work
         rdf:about="">
        <dc:format>image/svg+xml</dc:format>
        <dc:type
           rdf:resource="http://purl.org/dc/dcmitype/StillImage" />
        <dc:title />
      </cc:Work>
    </rdf:RDF>
  </metadata>
  <g
     inkscape:label="Layer 1"
     inkscape:groupmode="layer"
     id="layer1"
     transform="translate(0,-52.362183)">
    <path
       style="opacity:1;fill:#000000;stroke-width:2.02030516"
       d="M 503.3457 58.160156 C 459.63665 153.34939 411.49258 251.96205 409.27734 358.64844 C 408.82431 386.52767 416.91543 414.65297 405.54297 441.25586 C 400.85385 460.45534 396.50907 481.31825 393.60352 447.37695 C 380.54021 375.59654 340.82156 310.74229 283.7793 265.48242 C 249.48133 237.68348 215.4531 208.87661 177.96094 185.55469 C 164.63791 262.20277 190.30331 341.10648 238.92773 400.83008 C 265.77437 427.41501 278.11426 463.02343 294.54297 496.1582 C 217.08049 425.73773 106.718 417.85906 6.9980469 416.46875 C 55.717692 446.89073 90.178026 493.81078 114.38086 545.11719 C 143.71601 605.28313 192.43455 653.96561 246.83594 691.89844 C 217.37133 628.972 176.61689 564.22073 184.32031 491.875 C 210.98207 456.47499 257.62822 515.13055 289.06641 527.67773 C 317.65982 545.2548 378.48034 569.15892 404.30859 580.80859 C 406.00523 581.83607 407.52634 582.55296 408.82227 582.88672 C 402.94167 554.95271 398.17053 523.21214 413.4375 496.28711 C 425.21352 451.05815 424.66223 519.02758 428.02344 536.42578 C 428.28952 556.00603 430.61681 597.99588 435.1543 555.32812 C 445.52143 490.75296 446.55818 422.2952 475.97852 362.68164 C 463.36888 459.37679 450.07692 555.98226 436.3125 652.51953 C 363.7046 592.53454 287.16694 535.95876 202.18359 494.71484 C 203.22242 546.79463 223.90276 598.28516 246.41602 645.21875 C 286.29621 722.90819 343.79534 804.49248 432.27148 829.10742 C 474.16647 830.92832 511.82141 810.95554 552.23828 829.86133 C 629.81702 827.56649 685.67237 761.5353 727.00391 702.94141 C 767.02881 640.45198 799.00505 569.26778 804.68164 494.70703 C 716.77103 535.86784 639.50809 596.10225 564.12891 656.46484 C 553.0319 558.87044 541.9349 461.27604 530.83789 363.68164 C 563.06435 430.51939 560.81547 507.29913 574.91211 578.77148 C 577.74438 538.65791 581.08684 498.19853 587.63281 458.34766 C 594.39313 480.25415 607.32073 500.83815 602.95508 524.91992 C 603.57302 536.0601 594.17823 588.81033 597.14844 590.85547 C 597.0373 591.65345 598.51173 590.96252 602.21875 588.3418 C 605.21136 586.22614 612.8237 579.80045 623.10742 572.2168 C 673.5544 540.04692 744.91316 505.4294 799.02148 479.5332 C 846.08743 484.11895 814.53658 561.4043 805.32031 592.5332 C 794.5211 624.88398 768.53357 665.58955 761.54688 690.26562 C 824.53044 649.66417 872.10276 589.68845 903.88867 522.33594 C 924.70291 478.62082 959.33 443.54159 998.9668 416.48828 C 901.4162 418.27288 793.63553 425.11191 716.23828 491.79492 C 733.14701 458.44091 745.05668 422.06973 771.66016 394.70117 C 817.89015 335.92123 842.14144 257.8516 827.10938 183.97656 C 754.37081 241.26139 667.51619 293.25665 631.82812 383.29688 C 620.14819 395.63954 614.83939 472.17285 607.28516 432.3457 C 600.09318 406.76456 591.75022 381.38366 595.7793 354.35938 C 595.61725 254.99669 549.46467 163.43939 510.66992 74.287109 C 508.22845 68.911309 505.78717 63.535956 503.3457 58.160156 z "
       transform="translate(0,52.362183)"
       id="path357" />
  </g>
</svg>
