<?xml version="1.0" encoding="UTF-8" standalone="no"?>
<!-- Created with Inkscape (http://www.inkscape.org/) -->

<svg
   xmlns:dc="http://purl.org/dc/elements/1.1/"
   xmlns:cc="http://creativecommons.org/ns#"
   xmlns:rdf="http://www.w3.org/1999/02/22-rdf-syntax-ns#"
   xmlns:svg="http://www.w3.org/2000/svg"
   xmlns="http://www.w3.org/2000/svg"
   xmlns:sodipodi="http://sodipodi.sourceforge.net/DTD/sodipodi-0.dtd"
   xmlns:inkscape="http://www.inkscape.org/namespaces/inkscape"
   version="1.1"
   id="svg64"
   width="280"
   height="180"
   viewBox="0 0 280 180"
   sodipodi:docname="moon.svg"
   inkscape:version="0.92.1 r15371">
  <metadata
     id="metadata70">
    <rdf:RDF>
      <cc:Work
         rdf:about="">
        <dc:format>image/svg+xml</dc:format>
        <dc:type
           rdf:resource="http://purl.org/dc/dcmitype/StillImage" />
        <dc:title></dc:title>
      </cc:Work>
    </rdf:RDF>
  </metadata>
  <defs
     id="defs68" />
  <sodipodi:namedview
     pagecolor="#ffffff"
     bordercolor="#666666"
     borderopacity="1"
     objecttolerance="10"
     gridtolerance="10"
     guidetolerance="10"
     inkscape:pageopacity="0"
     inkscape:pageshadow="2"
     inkscape:window-width="1920"
     inkscape:window-height="972"
     id="namedview66"
     showgrid="false"
     showguides="true"
     inkscape:guide-bbox="true"
     inkscape:zoom="4.4222222"
     inkscape:cx="-0.40364267"
     inkscape:cy="87.553373"
     inkscape:window-x="0"
     inkscape:window-y="30"
     inkscape:window-maximized="1"
     inkscape:current-layer="svg64" />
  <path
     style="fill:#000000"
     d="M 66.046875,41.853516 C 52.650391,41.672085 39.030483,46.653517 29.815102,56.562016 17.278283,69.382814 12.515746,89.555894 19.304655,106.35478 c 6.271949,16.53045 22.010741,29.17372 39.69868,30.99627 8.426871,1.86466 17.593924,-0.86826 25.417562,-3.83535 3.812143,-2.31698 6.707809,-4.37298 9.543419,-9.82223 -3.383518,3.47793 -4.860222,4.5619 -7.681265,6.22032 0.89996,-2.08797 1.680671,-3.37816 2.640665,-6.22032 -2.143074,3.12448 -7.54521,6.46267 -8.78903,7.59916 1.621792,-3.31218 2.42992,-4.93352 3.268276,-7.67455 -3.658695,4.52336 -8.900672,7.51912 -11.31612,9.12061 1.134721,-2.54448 4.868154,-5.95873 6.222578,-9.04522 -4.709493,4.33054 -11.308135,6.99411 -14.047417,8.50456 -7.015006,1.87213 -13.959638,-1.76575 -20.126296,-4.73368 -3.493457,-2.62035 -12.824292,-9.9334 -15.051749,-14.61716 0.659308,-7.26432 -5.774345,-2.18068 -4.53196,-7.47288 -3.324898,-3.69112 -3.614693,-7.1342 -3.650017,-11.671764 -3.53226,-3.936012 -0.761935,-9.047485 0.333494,-8.912494 0.385377,-9.57315 4.25743,-16.558087 9.872712,-22.796596 -2.379585,4.053633 -4.710291,8.147201 -6.156975,12.190138 -1.617845,4.499944 -1.595682,5.848065 -2.504413,10.783408 3.877969,2.656946 -4.490724,3.403536 -0.495886,8.581989 -0.219489,0.660629 0.464061,8.693829 3.86218,11.281349 2.654022,-1.99507 5.660536,3.55036 4.689003,7.93296 4.291616,6.26081 17.013986,13.40034 23.179551,16.73165 7.10694,2.06591 16.524559,-1.01354 20.692323,-5.80148 C 61.16205,123.92664 51.088559,114.36996 46.898299,106.00176 41.016527,95.571501 40.483506,81.238467 46.183275,70.759231 56.976787,51.555923 73.873397,49.493316 93.856779,54.410662 82.867314,43.486469 76.618986,43.316377 66.046875,41.853516 Z M 76.701172,55.59375 c -7.615563,-0.07401 -14.626568,4.04822 -20.277014,8.833367 -10.101218,8.77784 -13.049952,24.029103 -8.072364,36.266433 5.303743,13.63281 20.780432,22.24813 35.175823,19.63969 3.213723,-0.35405 9.334036,-2.33905 10.329162,-3.84352 -10.64452,2.5944 -22.805786,0.37011 -30.560828,-7.76652 C 58.160324,103.88748 54.550691,97.245202 54.681833,90.055743 53.76527,78.417669 60.397192,66.672309 70.951911,61.619703 77.987291,58.170498 86.271107,57.910349 93.83662,59.387655 88.921741,55.876311 82.575268,55.46279 76.701172,55.59375 Z"
     id="path74"
     inkscape:connector-curvature="0"
     sodipodi:nodetypes="cccccccccccccccccccccccccccccccccccccccc" />
</svg>
