<?xml version="1.0" encoding="UTF-8" standalone="no"?>
<!-- Created with Inkscape (http://www.inkscape.org/) -->

<svg
   xmlns:dc="http://purl.org/dc/elements/1.1/"
   xmlns:cc="http://creativecommons.org/ns#"
   xmlns:rdf="http://www.w3.org/1999/02/22-rdf-syntax-ns#"
   xmlns:svg="http://www.w3.org/2000/svg"
   xmlns="http://www.w3.org/2000/svg"
   xmlns:sodipodi="http://sodipodi.sourceforge.net/DTD/sodipodi-0.dtd"
   xmlns:inkscape="http://www.inkscape.org/namespaces/inkscape"
   width="210mm"
   height="297mm"
   viewBox="0 0 210 297"
   version="1.1"
   id="svg8"
   sodipodi:docname="Penny.svg"
   inkscape:version="0.92.1 r15371"
   inkscape:export-filename="/home/julianunderwood/html/svg/Penny.svg.png"
   inkscape:export-xdpi="96"
   inkscape:export-ydpi="96">
  <defs
     id="defs2" />
  <sodipodi:namedview
     id="base"
     pagecolor="#ffffff"
     bordercolor="#666666"
     borderopacity="1.0"
     inkscape:pageopacity="0.0"
     inkscape:pageshadow="2"
     inkscape:zoom="0.7"
     inkscape:cx="862.6423"
     inkscape:cy="639.18727"
     inkscape:document-units="mm"
     inkscape:current-layer="layer1"
     showgrid="false"
     inkscape:window-width="1920"
     inkscape:window-height="972"
     inkscape:window-x="0"
     inkscape:window-y="30"
     inkscape:window-maximized="1" />
  <metadata
     id="metadata5">
    <rdf:RDF>
      <cc:Work
         rdf:about="">
        <dc:format>image/svg+xml</dc:format>
        <dc:type
           rdf:resource="http://purl.org/dc/dcmitype/StillImage" />
      </cc:Work>
    </rdf:RDF>
  </metadata>
  <g
     inkscape:label="Layer 1"
     inkscape:groupmode="layer"
     id="layer1">
    <path
       style="fill:#000000;stroke-width:1.0666666"
       d="M 113.81641 128.38672 L 115.97656 133.29883 C 122.84219 148.91846 119.54479 175.08169 109.29883 186.2832 L 107.07422 188.71484 L 110.32031 191.96094 L 113.56836 195.20898 L 118.66992 191.76367 C 130.18081 183.99505 148.99044 179.27481 162.75 180.70117 C 207.40653 185.3304 236.54667 228.69172 223.79297 270.76367 L 212.04492 264.62695 C 215.7579 250.89958 213.97403 237.05108 206.68359 222.73438 C 203.51926 216.52043 190.55878 203.78993 183.66016 200.11914 C 172.4748 194.16735 156.32005 192.09592 143.77148 195.00391 C 123.28542 199.75133 105.80871 217.1871 101.08789 237.58789 C 99.09865 246.18426 99.542342 259.45737 102.09375 267.66406 C 108.31772 287.68394 127.03955 303.86755 148.03906 307.38281 C 155.52674 308.63621 164.20351 307.88745 172.48047 305.42969 L 178.83398 317.17969 C 161.7321 322.84108 142.68735 321.70521 126.17188 313.54297 C 103.77628 302.47466 89.341182 281.65781 86.753906 256.69922 C 85.327513 242.93963 90.047776 224.13006 97.816406 212.61914 L 101.25977 207.51562 L 98.013672 204.26953 L 94.767578 201.02344 L 92.335938 203.24609 C 81.134438 213.49205 54.971216 216.78945 39.351562 209.92383 L 34.4375 207.76367 L 44.421875 217.81445 L 54.40625 227.86328 L 53.115234 239.23242 C 45.157477 309.25544 108.65009 366.92978 178.15039 352.80859 C 184.0183 351.61634 184.35103 351.66818 186.42188 354.10938 C 194.26303 363.353 200.89792 379.56777 204.05273 397.19141 C 207.34168 415.56486 207.26673 445.9167 203.85938 474.41211 L 203.16992 480.17188 L 208.4043 479.47852 C 216.08592 478.45974 249.52133 480.62033 264.01562 483.07227 C 296.44121 488.55757 324.73852 500.21786 347.86719 517.625 C 352.16734 520.86137 360.72009 528.72115 366.87305 535.08984 C 396.48787 565.74306 415.59988 608.43432 426.42773 668.11914 C 427.06632 671.63913 427.81066 675.5663 428.08203 676.8457 C 428.49305 678.78449 433.14862 680.98209 456.03906 690.03516 C 511.86707 712.11485 555.70842 728.11353 616.83789 748.7168 C 637.37123 755.63741 654.41021 761.33462 654.70312 761.37695 C 654.99596 761.41913 552.81376 659.02963 427.63086 533.8457 L 229.53125 335.74414 L 243.13086 324.58984 L 439.62305 521.18555 C 564.66384 646.29222 667.02944 748.65234 667.10352 748.65234 C 667.38127 748.65234 655.72709 713.18853 648.52539 692.11914 C 631.64474 642.73273 615.13134 597.90082 596.95703 552.11914 C 587.16609 527.45546 584.81975 522.43709 582.88867 522.02539 C 581.61399 521.7536 575.29124 520.53041 568.83789 519.30664 C 502.42056 506.71152 454.8648 481.51798 424.75391 442.97852 C 399.10872 410.15479 386.34196 368.29844 385.60938 314.63867 L 385.37109 297.25 L 380.57227 297.85938 C 354.45547 301.18305 321.35659 301.24464 303.24219 298.00195 C 285.93093 294.90302 269.12775 288.0309 260.16211 280.38281 C 257.71823 278.29809 257.66733 277.97397 258.875 272.09961 C 267.79442 228.71326 247.72387 183.15992 209.9043 160.95117 C 190.20914 149.38563 168.41652 144.7007 145.49414 147.10547 L 133.88281 148.32422 L 123.84961 138.35547 L 113.81641 128.38672 z "
       transform="scale(0.26458333)"
       id="path72" />
  </g>
</svg>
