<?xml version="1.0" encoding="UTF-8" standalone="no"?>
<!-- Created with Inkscape (http://www.inkscape.org/) -->

<svg
   xmlns:dc="http://purl.org/dc/elements/1.1/"
   xmlns:cc="http://creativecommons.org/ns#"
   xmlns:rdf="http://www.w3.org/1999/02/22-rdf-syntax-ns#"
   xmlns:svg="http://www.w3.org/2000/svg"
   xmlns="http://www.w3.org/2000/svg"
   xmlns:sodipodi="http://sodipodi.sourceforge.net/DTD/sodipodi-0.dtd"
   xmlns:inkscape="http://www.inkscape.org/namespaces/inkscape"
   width="210mm"
   height="297mm"
   viewBox="0 0 210 297"
   version="1.1"
   id="svg172"
   inkscape:version="0.92.1 r15371"
   sodipodi:docname="rre.svg">
  <defs
     id="defs166" />
  <sodipodi:namedview
     id="base"
     pagecolor="#ffffff"
     bordercolor="#666666"
     borderopacity="1.0"
     inkscape:pageopacity="0.0"
     inkscape:pageshadow="2"
     inkscape:zoom="0.7"
     inkscape:cx="1009.6148"
     inkscape:cy="742.79697"
     inkscape:document-units="mm"
     inkscape:current-layer="layer1"
     showgrid="false"
     inkscape:window-width="1920"
     inkscape:window-height="972"
     inkscape:window-x="0"
     inkscape:window-y="30"
     inkscape:window-maximized="1" />
  <metadata
     id="metadata169">
    <rdf:RDF>
      <cc:Work
         rdf:about="">
        <dc:format>image/svg+xml</dc:format>
        <dc:type
           rdf:resource="http://purl.org/dc/dcmitype/StillImage" />
        <dc:title />
      </cc:Work>
    </rdf:RDF>
  </metadata>
  <g
     inkscape:label="Layer 1"
     inkscape:groupmode="layer"
     id="layer1">
    <path
       style="fill:#000000;stroke-width:2.14139962"
       d="m 120.85648,25.079902 c -5.50004,6.078075 -9.62266,13.353093 -5.25648,21.072492 -0.10078,7.156994 -11.70587,24.087231 -13.46732,9.391387 -1.65246,-4.054785 -8.275509,-19.818343 -10.594569,-9.64281 5.142929,5.685246 7.894318,13.701587 -2.020077,16.300644 -6.535815,4.477936 -15.550563,-2.567842 -18.198071,-4.555796 -0.03478,8.608779 -6.710492,16.611316 1.964095,22.482645 3.778057,5.968064 5.973249,13.854491 14.208193,7.668504 8.491689,-1.439455 -1.61921,12.693812 -7.318488,9.697532 -13.618972,-2.070577 -7.39938,14.87264 2.741604,13.2429 11.394527,-1.85265 15.334033,7.60018 17.428583,16.4388 7.33626,3.31548 5.48575,-14.36816 12.80861,-6.55071 -0.19396,7.2907 4.85134,6.41142 7.761,1.64113 13.49422,-5.13322 18.00639,14.61751 9.97393,22.68377 -7.13246,11.66246 -21.25357,17.67717 -34.611419,17.32889 -1.694717,8.66311 15.590509,6.12252 21.030339,3.71549 13.45082,-2.65078 24.92557,-12.71089 28.43637,-26.0572 1.40615,-3.88645 4.5748,-17.51897 8.95048,-13.56802 0.94609,4.75314 -5.03482,21.76145 3.88201,17.24269 4.24431,-3.87145 4.77913,-20.1326 11.76683,-16.14808 3.33284,7.28431 -4.45273,12.00568 1.16489,18.69 -0.2194,3.32234 -1.88307,6.89443 -2.21792,10.47685 -1.71452,4.0053 -4.55936,7.848 -7.9808,10.66295 2.17365,-4.57312 7.37652,-17.07206 2.06775,-17.26814 -8.08117,8.48096 -21.49615,6.63014 -29.71067,14.47479 -6.65383,5.56553 -9.41966,19.63308 -19.45461,18.83557 3.36901,-3.54556 9.90869,-15.5322 -0.39208,-10.32357 -12.08162,4.90223 -22.461031,-4.50047 -33.490674,-7.30227 -6.515378,1.49044 -14.465247,-12.46544 -4.547947,-7.58878 9.98271,2.04132 20.112368,-1.07549 30.006871,-2.44406 8.29862,-1.84941 16.71772,-5.78327 21.48003,-13.13552 -8.48803,-2.35105 -17.49479,12.54351 -25.54935,2.90826 1.18769,-6.70368 15.04152,-0.25119 19.34916,-7.62327 5.44528,-3.46491 2.31471,-11.82824 -3.78102,-6.44472 -8.91538,4.78159 -27.068837,3.82337 -25.074656,-9.97412 0.714261,-12.99856 -19.01921,1.1109 -12.85472,8.88093 0.290166,9.48754 19.072468,10.38355 14.244171,18.29546 -12.806796,-2.9249 -22.144783,-16.16848 -19.911829,-29.27124 0.784854,-11.50146 -16.173924,-9.98235 -16.176906,-18.7539 6.294181,-4.23957 16.437388,-15.231639 6.695885,-21.245629 -6.79445,-5.220499 -13.924899,4.345041 -18.909054,2.213891 1.29571,-4.341077 -2.830258,-13.006009 -5.191204,-4.651158 -6.645807,13.68889 -13.237361,28.517066 -10.558161,44.122116 1.540656,12.80426 6.73772,25.15823 14.86073,35.17976 6.641219,-11.32555 -1.634738,-23.98868 0.01034,-35.72495 0.399036,-5.47545 9.246152,-17.69758 9.872985,-5.56643 -1.126064,8.78785 -4.396931,18.43332 2.579722,25.85183 3.680285,3.85971 5.849646,19.43958 -1.977025,10.61069 -9.611865,1.67584 -2.595391,15.43894 0.386485,21.25275 7.071333,10.21101 18.95885,18.83027 31.969775,17.09225 5.659895,-0.0585 16.884502,-1.81375 18.980682,2.06746 -3.93394,3.69462 -21.100722,-0.51193 -15.902318,7.40612 8.020806,7.38357 18.475508,8.87564 28.109868,3.95641 14.33746,-4.14007 28.02419,-12.20512 36.73947,-24.55628 4.01946,-0.029 7.78288,-2.48841 11.32714,-4.13396 6.53802,-7.58376 -2.50336,7.30436 -5.21245,9.05342 -8.85001,7.19742 -14.60531,17.71853 -22.99522,24.94593 -5.02099,1.95704 -0.72484,-9.85082 -7.68868,-4.78581 -8.24963,7.15504 -19.50486,8.67497 -30.07122,9.0653 -10.100064,0.99099 -17.04657,-7.09141 -26.754682,-3.57071 -0.290743,-5.96919 6.322898,-14.25275 -3.263228,-17.65059 -9.550468,-4.09919 -17.167648,-10.74042 -21.98925,-20.05902 -5.768636,-9.01048 -14.98396,-15.72808 -18.071047,-26.31801 -3.752448,-9.80637 -5.544381,-20.23221 -6.640269,-30.63618 -5.437127,-5.49246 6.70591,-21.721262 -2.112145,-19.918532 0.809309,9.508882 -2.750547,18.859952 -1.760481,28.445952 -1.584987,11.52054 -6.057114,24.03459 0.172526,35.00826 5.918915,15.77603 6.41957,35.42306 21.201904,46.24853 9.125627,7.52099 19.467012,13.33322 29.247279,19.92434 4.363725,-8.98109 10.152801,6.37534 12.984694,9.52673 10.339189,7.04052 22.286379,-1.14293 31.787259,-5.71241 7.60539,-3.72999 14.13152,-11.58105 23.1841,-11.16478 -5.27476,10.20587 10.87079,-3.02956 14.0005,-5.62848 10.72963,-9.47582 21.55863,-19.25765 29.91124,-30.92296 7.09231,-13.49011 6.14475,-29.81507 1.96807,-44.03919 -2.24585,-9.92264 -2.67945,-20.31367 -0.7879,-30.29611 -7.08432,0.59363 -3.17282,19.65448 -10.09001,12.47737 -4.49633,-10.03982 0.8234,-20.407489 3.83986,-29.996978 2.72717,-9.244991 -13.86257,-15.935388 -5.80581,-21.656238 -9.50315,2.423157 0.97596,22.82626 -13.35075,18.349195 -12.11588,-1.305923 -15.52119,-13.991667 -23.70257,-20.725728 -6.5499,-4.387511 6.7762,-13.068741 -2.93343,-13.73129 -7.20553,8.50474 0.78201,19.960839 -1.4831,29.590598 -5.82756,5.59308 -4.79705,15.458987 4.99157,14.654514 9.11931,-0.869403 21.50202,14.172657 11.85939,19.824037 -3.65336,-8.64692 -21.03437,-20.428896 -26.56938,-9.17491 -3.26842,5.65647 -14.06141,3.22431 -8.94494,-3.702 -2.48224,-7.133055 -20.958033,-4.123354 -12.740745,-15.158341 5.843885,-8.968378 13.446935,15.533641 19.769595,3.333535 7.33923,-7.62722 5.30339,-19.468414 1.69984,-26.312037 7.20357,-10.974353 -5.06043,-24.162174 1.76668,-34.186445 1.11668,-1.436837 1.17934,-4.015381 -1.06783,-4.45531 z"
       id="path173"
       inkscape:connector-curvature="0" />
  </g>
</svg>
