<?xml version="1.0" encoding="UTF-8" standalone="no"?>
<!-- Created with Inkscape (http://www.inkscape.org/) -->

<svg
   xmlns:dc="http://purl.org/dc/elements/1.1/"
   xmlns:cc="http://creativecommons.org/ns#"
   xmlns:rdf="http://www.w3.org/1999/02/22-rdf-syntax-ns#"
   xmlns:svg="http://www.w3.org/2000/svg"
   xmlns="http://www.w3.org/2000/svg"
   xmlns:sodipodi="http://sodipodi.sourceforge.net/DTD/sodipodi-0.dtd"
   xmlns:inkscape="http://www.inkscape.org/namespaces/inkscape"
   width="210mm"
   height="297mm"
   viewBox="0 0 210 297"
   version="1.1"
   id="svg228"
   inkscape:version="0.92.1 r15371"
   sodipodi:docname="yxle.svg"
   inkscape:export-filename="/home/julianunderwood/html/svg/yxle.svg.png"
   inkscape:export-xdpi="96"
   inkscape:export-ydpi="96">
  <defs
     id="defs222" />
  <sodipodi:namedview
     id="base"
     pagecolor="#ffffff"
     bordercolor="#666666"
     borderopacity="1.0"
     inkscape:pageopacity="0.0"
     inkscape:pageshadow="2"
     inkscape:zoom="0.35"
     inkscape:cx="-75.714286"
     inkscape:cy="560"
     inkscape:document-units="mm"
     inkscape:current-layer="layer1"
     showgrid="false"
     inkscape:window-width="1920"
     inkscape:window-height="972"
     inkscape:window-x="0"
     inkscape:window-y="30"
     inkscape:window-maximized="1" />
  <metadata
     id="metadata225">
    <rdf:RDF>
      <cc:Work
         rdf:about="">
        <dc:format>image/svg+xml</dc:format>
        <dc:type
           rdf:resource="http://purl.org/dc/dcmitype/StillImage" />
        <dc:title />
      </cc:Work>
    </rdf:RDF>
  </metadata>
  <g
     inkscape:label="Layer 1"
     inkscape:groupmode="layer"
     id="layer1">
    <g
       id="g4211"
       transform="matrix(2.0683187,0,0,2.0683187,1.9124283,24.029322)">
      <path
         style="fill:#000000;stroke-width:0.15979815"
         d="m 60.527272,104.06631 -1.52655,-0.14142 -1.51808,-0.46832 -1.58951,-0.57298 -1.37208,-0.50451 -1.39835,-0.57384 -1.22016,-0.542 -1.11557,-0.55584 -0.97418,-0.49231 -0.77738,-0.46741 -1.11753,-0.574447 -0.97411,-0.55147 -0.63466,-0.446608 -1.37471,-0.714483 -0.58901,-0.477439 -0.65934,-0.494332 -0.57115,-0.385616 -1.45319,-0.816709 -0.39143,-0.402963 -0.62228,-0.496777 -0.56436,-0.473493 -0.49283,-0.479454 -0.78624,-0.561727 -0.52467,-0.461952 -0.84925,-0.638843 -1.07285,-0.736415 -0.35954,-0.29518 -0.8342,-0.726535 -0.35259,-0.409768 -0.53667,-0.561734 -0.70603,-0.628921 -0.51524,-0.476953 -0.48125,-0.460671 -0.62563,-0.557901 -0.4805,-0.458169 -0.57697,-0.633152 -0.48386,-0.51524 -0.46807,-0.485074 -0.57297,-0.572552 -0.49871,-0.48023 -0.55613,-0.615354 -0.53363,-0.558819 -0.47329,-0.499513 -0.5009,-0.588081 -0.49523,-0.565513 -0.47843,-0.529031 -0.52209,-0.507691 -0.57198,-0.761907 -0.72924,-0.97903 -0.54398,-0.674218 -0.5158,-0.6589 -0.48731,-0.564219 -0.45922,-0.576717 -0.53493,-0.653593 -0.5676,-0.793383 -0.51117,-0.807665 -0.52965,-0.77262 -0.62362,-0.786688 -0.33152,-0.421982 -0.78204,-1.410412 -0.40018,-0.69766 -0.57789,-1.071798 -0.47706,-0.949403 -0.74297,-1.329455 -0.2985,-0.719091 -0.61955,-1.648802 -0.48268,-1.522698 -0.67933,-2.220852 -0.37293,-5.657682 -0.3995,-5.799305 -0.42965,-0.439445 -0.21542,-0.707599 -0.40698,-1.158537 -0.4602,-0.695656 -0.32173,-0.895317 -0.53767,-1.059741 -0.47266,-1.661453 -0.2808404,-1.777747 0.1598604,-3.154943 0.71426,-2.370562 0.4914,-0.896866 0.4807,-0.777079 0.55532,-0.972368 0.64761,-1.114669 0.4755,-2.315063 -0.72809,-3.105276 -0.3905,-0.654375 -0.77162,-0.817291 -0.18717,-0.363939 -0.83091,-1.362952 -0.28768,-0.53513 -0.4521104,-0.749981 -0.50952,-1.540491 0.25055,0.464137 0.5237204,0.603684 0.60708,0.426992 0.8027,0.658062 1.00266,0.700657 0.68686,0.420576 0.49664,0.468977 0.61921,0.800939 0.5281,0.814903 0.57156,0.827095 0.46549,0.344152 v 1.795366 l -0.41173,2.28468 -0.56427,1.041758 -0.44291,0.644607 -0.65847,1.365454 -0.43944,0.872886 -0.43945,1.189554 0.43945,1.189342 0.43944,0.772883 2.67591,2.538958 2.96187,-0.101509 0.40948,-0.479525 0.58451,-0.390705 1.08206,-0.616509 1.01838,-0.795656 -0.16855,-4.819963 -0.32836,-0.759041 -0.83399,-1.769194 -0.21039,-2.987983 0.39949,-3.207882 0.40043,-0.447678 0.79154,-2.430579 0.48592,-0.870886 0.38869,-0.494562 0.57292,-0.621864 0.57553,-0.542972 0.56572,-0.481007 0.58701,-0.486352 0.81889,-0.514058 0.91987,-0.627562 0.68388,-0.535268 0.62245,-0.552021 0.65164,-0.715432 0.49693,-0.576019 0.62609,-2.810238 -0.58734,-3.4341303 -0.47113,-0.918719 -0.71223,-1.5494288 -0.49743,-0.5884597 -0.59581,-0.6268594 -0.57903,-0.550379 -1.05022,-0.6448308 -0.85916,-0.287827 1.06973,0.04155 1.46362,0.4665546 1.19008,0.5306275 0.96595,0.4782065 0.81102,0.5647133 1.04727,0.6478099 0.71566,0.455685 0.51811,0.4347684 0.60796,0.6336401 0.48616,0.56397 0.50457,0.5664867 0.52815,1.0028905 0.30096,0.9970978 0.73403,2.2685777 -0.47313,1.976631 -0.57357,1.60744 -0.44288,1.063928 -0.59128,0.836523 -0.68198,1.085104 -0.43022,0.716006 -0.40749,0.472012 -0.56694,0.612325 -0.53576,0.658799 -0.58183,0.935426 -0.59953,1.072944 -0.53171,2.243488 0.35222,5.586372 0.39595,0.233275 0.30826,0.564564 2.6265,2.706966 0.57786,0.400171 1.65119,0.644548 1.19849,0.386249 3.33702,0.662608 1.33373,0.415228 0.6342,0.543566 0.63197,0.536532 0.41384,0.41384 0.53653,0.631968 0.55658,0.638332 -3.17234,0.379113 -4.62591,0.723294 -0.6813,0.345861 -0.64378,0.569565 -0.38202,0.463667 -0.49904,0.439445 -0.87318,1.029391 -0.59452,0.589948 -1.64732,0.02959 -2.01372,0.16774 -1.62042,1.457323 -0.3301,0.441311 -0.63846,2.192092 0.71761,2.571469 0.40008,0.643753 0.77558,0.824814 0.33935,0.389884 1.82372,0.727811 0.65128,0.26005 5.00364,0.63304 4.19255,0.707433 1.27838,0.427541 1.28873,0.543857 0.97955,0.546849 0.741,0.487357 0.59014,0.485457 0.56665,0.499267 0.47407,0.479441 0.55524,0.63813 0.53419,0.632629 0.40474,0.846426 0.5562,1.339024 0.56907,2.734993 -9.6e-4,4.894179 -0.49974,3.187595 -0.56074,1.890466 -0.4601,1.508038 -0.70222,1.880017 -0.60572,0.499267 -0.67715,-0.189695 -0.57184,-0.21579 -0.59582,-0.501427 -0.42233,-0.403328 -0.76247,-0.487723 -1.66262,-1.558032 -1.86875,-1.755387 -0.82694,-0.990565 -0.40801,-0.404209 -0.50658,-1.141795 1.77687,-2.010177 0.3355,-0.434789 -2.06833,-1.887238 -4.05117,0.01198 -0.75509,0.519344 -0.46311,0.3909 -0.81201,0.907182 -0.39949,0.596373 v 2.237707 l 0.40009,0.751411 0.8042,1.419859 0.39913,0.547663 0.56029,0.652867 0.4789,0.492988 0.53785,0.56567 0.48701,0.562764 0.49552,0.56664 0.49371,0.559437 0.54414,0.610044 0.55424,0.56287 0.49359,0.47828 0.53646,0.536467 0.47828,0.493584 0.57255,0.572968 0.55344,0.468069 0.54961,0.460671 0.63505,0.560267 0.60631,0.538067 0.57149,0.490052 0.62847,0.458296 0.94362,0.696964 0.84683,0.607353 0.62576,0.41727 0.7886,0.549964 0.84531,0.552351 0.88976,0.541661 2.08846,0.494547 2.99592,-0.588372 0.90003,-0.493585 0.9749,-0.571045 0.66764,-0.505761 0.65847,-0.494673 0.62129,-0.514588 0.92352,-0.642044 0.59787,-0.480019 1.75568,-1.498009 0.53932,-0.539417 0.5593,-0.559294 1.00295,-1.022708 1.91336,-2.160898 1.31834,-1.455989 0.60025,-0.799717 0.47939,-0.465787 0.47839,-0.579857 0.47011,-0.502368 0.5687,-0.643618 0.47271,-0.542788 0.53632,-0.559181 0.48719,-0.568431 0.42294,-0.411763 0.72726,-0.983494 0.62932,-0.870099 0.43429,-0.536831 0.63148,-0.810589 0.45275,-0.468977 0.48925,-0.559294 0.47383,-0.559293 0.50607,-0.557673 0.5539,-0.64907 0.54868,-0.640813 0.40429,-0.549416 0.70579,-0.87889 0.72527,-0.87889 0.38824,-0.538999 0.5386,-0.620952 0.4625,-0.619537 0.57184,-1.159128 0.42272,-1.645561 -0.39949,-1.394258 -0.3995,-0.55803 -0.80241,-1.453442 -0.76429,-0.626051 -1.19286,-0.735855 -0.67372,-0.388386 -1.47944,-0.646681 -1.20322,-0.429715 -3.61321,-0.677207 -1.91757,-0.16774 -4.35729,-0.882077 -1.14414,-0.4132 -0.63465,-0.541927 -0.63813,-0.555233 -0.47458,-0.472227 -0.58378,-1.559956 0.68413,-4.922598 0.5267,-0.905878 0.46544,-0.526356 0.62592,-0.572255 0.49511,-0.477079 2.77955,-2.559088 0.28943,-0.507966 0.66969,-3.272399 0.44947,-2.977236 0.58324,-1.625346 0.62916,-1.665654 0.41518,-0.782917 0.47419,-0.772074 0.65069,-0.957332 0.6444,-0.867996 0.46789,-0.616231 0.40271,-0.466548 0.55642,-0.58781 0.55163,-0.555605 0.5025,-0.568083 0.48673,-0.562079 0.53139,-0.537925 0.47601,-0.567501 0.66671,-0.841287 0.71961,-0.965044 0.37963,-0.615621 0.49462,-0.768769 0.60918,-1.42338 0.40205,-1.289289 0.37229,-1.374053 -0.27329,-1.5407101 -0.47631,-1.3556029 -0.46674,-1.3034256 -0.65927,-1.1112961 -0.56386,-0.6791421 -0.46457,-0.5029623 -0.67143,-0.7061131 -0.45994,-0.2031507 0.6941,-0.012979 0.7779,0.3074845 0.74408,0.6157151 1.05978,0.6966546 0.74568,0.5094012 0.49968,0.5409143 0.59416,0.9037993 0.66308,1.4381834 0.53779,1.4002738 -0.0811,3.2264557 -0.5031,2.013404 -0.54144,1.699615 -0.54956,1.266386 -0.48734,1.058326 -0.54082,1.077557 -0.56864,1.216524 -0.50394,0.984004 -0.49436,0.914344 -0.54659,1.055697 -0.54982,1.087363 -0.49321,1.01421 -0.55331,1.19163 -0.54481,1.153873 -0.16254,1.035097 -0.40287,0.720725 -0.41438,1.985401 0.45919,0.786568 0.54142,0.706638 3.03616,0.266855 4.62749,-0.696996 1.5941,-0.306827 1.41117,0.246912 1.56089,0.711877 0.86686,0.519344 0.73044,0.731356 1.17104,1.435072 0.47549,0.506937 0.47015,0.941518 0.51042,1.120964 0.54361,1.672161 0.8225,2.374589 0.20224,4.956234 -0.33336,5.265202 -0.68891,1.711398 -0.47094,0.967697 -0.57963,1.022353 -0.5426,0.900196 -0.55133,1.031246 -0.58444,1.062185 -0.46921,0.811598 -0.39638,1.094424 -0.66668,1.214609 -0.53643,1.184968 -0.54402,1.318335 -0.26513,0.916235 -0.85909,1.84537 -0.41104,0.952874 -0.63271,1.600571 -0.4569,0.724102 -0.57035,1.162637 -0.49615,0.936456 -0.55956,1.030223 -0.31481,0.856261 -0.81702,1.203542 -0.55853,0.950293 -0.38232,0.575425 -0.46785,0.755358 -0.67522,1.100364 -0.50008,0.746469 -0.47398,0.556811 -0.55336,0.649798 -0.52547,0.572958 -0.53847,0.578878 -0.56014,0.559684 -0.56338,0.561152 -0.46628,0.475116 -0.5084,0.461839 -0.51517,0.487719 -0.5507,0.565022 -0.61027,0.620551 -0.50848,0.431792 -0.55518,0.436803 -0.68314,0.591528 -0.49212,0.450227 -0.48103,0.492058 -2.79855,2.811319 -0.4638,0.42921 -0.48902,0.663444 -0.31497,0.489629 -0.7393,1.185274 -0.51965,1.090965 -0.63835,4.969988 -1.14574,2.49229 z"
         id="path4102"
         inkscape:connector-curvature="0"
         sodipodi:nodetypes="cccccccccccccccccccccccccccccccccccccccccccccccccccccccccccccccccccccccccccccccccccccccccccccccccccccccccccccccccccccccccccccccccccccccccccccccccccccccccccccccccccccccccccccccccccccccccccccccccccccccccccccccccccccccccccccccccccccccccccccccccccccccccccccccccccccccccccccccccccccccccccccccccccccccccccccccccccccccccccccccccccccccccccccccccccccccccccccccccccccccccccccccccccccccccccccccccccccccccccccccccccccccccccccccccccccccccccccccccccccccccccccccccccccccccccccc" />
      <path
         style="fill:#000000;stroke-width:0.15979815"
         d="m 49.501208,79.466563 0.39815,-0.1598 0.55925,-1.47978 0.51523,-1.40839 0.56923,-2.027687 0.46359,-1.787577 0.60349,-6.479914 -0.63198,-5.912532 -0.46538,-1.358284 -0.54758,-1.358285 -0.48259,-0.742637 -3.57092,-3.753715 -0.87032,-0.564148 -1.07217,-0.452536 -1.04746,-0.430253 -3.64327,-0.67485 -1.55465,-0.316273 -1.60713,-0.656 -1.62742,-1.551374 0.69206,-2.466862 1.03725,-0.784013 0.48828,-0.460118 0.90338,-0.408629 2.1075,-0.726946 1.45751,-0.31358 h 1.17372 l 0.009,0.759041 0.94727,2.14042 2.79433,-0.487901 0.25853,-0.334184 1.90338,-1.889393 0.44517,-0.483213 0.67122,-0.769922 0.71337,-0.98115 0.48731,-0.528219 v -2.268248 l -0.73628,-3.39229 -0.30241,-0.492645 -0.80064,-1.500263 -0.31794,-0.571294 -0.43945,-0.833317 -0.68198,-1.071375 -0.58381,-0.790291 -0.4418,-0.779675 -0.57472,-1.07155 -0.47519,-0.818307 -0.72289,-1.458235 -0.30839,-0.679222 -0.17258,-1.109538 -0.49033,-1.0348 -0.40407,-0.480209 -0.005,-3.531787 0.31056,-3.878993 0.74916,-1.805265 0.46731,-0.981424 0.5435,-0.785753 0.66967,-1.085899 0.48296,-0.7436863 0.43945,-0.490944 0.49218,-0.580784 0.5203,-0.533815 0.55593,-0.515046 0.55112,-0.526723 0.56283,-0.573388 0.55366,-0.489432 0.55914,-0.423295 0.73493,-0.584407 0.93828,-0.644535 0.75605,-0.511125 0.65562,-0.547533 0.52728,-0.429116 1.46913,-0.797171 0.60332,-0.07772 -0.54269,1.281447 -0.55643,0.791934 -0.5964,1.044469 -0.48968,0.91411 -0.37808,0.596534 -0.64442,1.279462 -0.48337,0.835629 -0.61614,1.291591 -0.47923,1.2086403 -0.65843,2.168113 -0.4327,1.335944 -0.43579,2.56536 0.4327,2.674104 0.43668,1.198486 0.71761,1.953053 0.40009,0.872661 0.72815,1.235099 0.23063,0.314174 1.17784,1.688367 2.84737,-0.103709 0.36138,0.006 0.54952,0.24855 0.56206,0.884393 0.49887,1.253083 0.39489,1.524874 -0.13553,1.055569 -0.81395,2.2954 -0.47456,1.324116 -0.52228,0.900563 -0.6315,1.085464 -0.5409,0.984029 -0.41964,0.653608 -0.56851,0.733802 -0.46599,0.652118 -0.62385,1.358285 -0.45459,1.170738 0.1529,3.926305 0.22506,0.626829 0.66863,1.722496 0.47418,0.624228 0.62656,0.618498 0.46781,0.407404 1.2707,0.793975 0.91038,0.438876 2.46824,0.609865 1.01807,0.320539 2.45983,0.723261 1.51808,0.497483 1.18811,0.491095 1.43432,0.56566 1.03159,0.556171 0.44332,0.233812 0.55929,0.704444 0.10012,2.123977 -0.54668,1.166696 -0.57951,1.160008 -0.49201,0.84868 -0.45726,0.666655 -0.65868,1.044986 -0.498,0.81352 -0.47592,0.692675 -0.51128,0.749391 -0.57208,0.8184 -0.62136,0.871574 -0.47307,0.663284 -0.47687,0.605643 -0.55245,0.626693 -0.39689,0.48031 -0.55526,0.552208 -0.59386,0.638782 -0.54025,0.566379 -0.51424,0.479805 -0.45668,0.40968 -0.60435,0.602079 -0.54535,0.544279 -0.5994,0.449338 -0.53689,0.468632 -0.79623,0.548208 -0.9628,0.573417 -0.87186,0.561214 -0.70985,0.472689 -1.31048,0.564701 -1.06739,0.50162 -1.3607,0.53371 -1.8377,0.83087 -0.49752,0.13047 -0.47939,-0.15979 z"
         id="path4104"
         inkscape:connector-curvature="0"
         sodipodi:nodetypes="ccccccccccccccccccccccccccccccccccccccccccccccccccccccccccccccccccccccccccccccccccccccccccccccccccccccccccccccccccccccccccccccccccccccccccccccccccccccccccccccccc" />
      <path
         style="fill:none;stroke:#000000;stroke-width:1px;stroke-linecap:butt;stroke-linejoin:miter;stroke-opacity:1"
         d="m 64.079058,67.356327 c 0.159798,2.237174 0.798991,13.902439 0.798991,13.902439 l 1.118587,-15.979815 -5.113541,5.113541 2.876367,14.062237 4.953743,-6.551724"
         id="path4112"
         inkscape:connector-curvature="0" />
      <path
         style="fill:none;stroke:#000000;stroke-width:1px;stroke-linecap:butt;stroke-linejoin:miter;stroke-opacity:1"
         d="m 62.640875,61.283997 c 0.798991,10.227082 1.118587,23.170732 1.118587,23.170732"
         id="path4114"
         inkscape:connector-curvature="0" />
      <path
         style="fill:none;stroke:#000000;stroke-width:1px;stroke-linecap:butt;stroke-linejoin:miter;stroke-opacity:1"
         d="m 60.084105,67.675923 c 2.716568,6.711522 5.433137,15.180824 5.433137,15.180824"
         id="path4116"
         inkscape:connector-curvature="0" />
      <path
         style="fill:none;stroke:#000000;stroke-width:1px;stroke-linecap:butt;stroke-linejoin:miter;stroke-opacity:1"
         d="m 62.960471,68.954308 c 0,5.752734 0.479395,13.742641 0.479395,13.742641"
         id="path4118"
         inkscape:connector-curvature="0" />
      <path
         style="fill:none;stroke:#000000;stroke-width:1px;stroke-linecap:butt;stroke-linejoin:miter;stroke-opacity:1"
         d="m 65.996636,65.278951 -2.55677,17.417998"
         id="path4120"
         inkscape:connector-curvature="0" />
      <path
         style="fill:none;stroke:#000000;stroke-width:1px;stroke-linecap:butt;stroke-linejoin:miter;stroke-opacity:1"
         d="m 64.079058,67.356327 0.798991,13.902439"
         id="path4122"
         inkscape:connector-curvature="0" />
      <path
         style="fill:none;stroke:#000000;stroke-width:1px;stroke-linecap:butt;stroke-linejoin:miter;stroke-opacity:1"
         d="m 62.800673,65.758345 2.716569,4.953743"
         id="path4124"
         inkscape:connector-curvature="0" />
      <path
         style="fill:none;stroke:#000000;stroke-width:1px;stroke-linecap:butt;stroke-linejoin:miter;stroke-opacity:1"
         d="m 60.084105,67.675923 6.391926,11.665265"
         id="path4126"
         inkscape:connector-curvature="0" />
      <path
         style="fill:none;stroke:#000000;stroke-width:1px;stroke-linecap:butt;stroke-linejoin:miter;stroke-opacity:1"
         d="m 64.079058,67.356327 0.798991,13.902439"
         id="path4128"
         inkscape:connector-curvature="0" />
      <path
         style="fill:none;stroke:#000000;stroke-width:1px;stroke-linecap:butt;stroke-linejoin:miter;stroke-opacity:1"
         d="m 60.883095,70.392492 3.994954,10.866274"
         id="path4130"
         inkscape:connector-curvature="0" />
      <path
         style="fill:none;stroke:#000000;stroke-width:1px;stroke-linecap:butt;stroke-linejoin:miter;stroke-opacity:1"
         d="m 63.519765,64.000566 0.639192,13.582842"
         id="path4132"
         inkscape:connector-curvature="0" />
      <path
         style="fill:none;stroke:#000000;stroke-width:1px;stroke-linecap:butt;stroke-linejoin:miter;stroke-opacity:1"
         d="m 66.076535,63.121676 0.399496,16.219512"
         id="path4134"
         inkscape:connector-curvature="0" />
      <path
         style="fill:none;stroke:#000000;stroke-width:1px;stroke-linecap:butt;stroke-linejoin:miter;stroke-opacity:1"
         d="m 64.158957,65.678446 2.237175,12.544155"
         id="path4136"
         inkscape:connector-curvature="0" />
      <path
         style="fill:none;stroke:#000000;stroke-width:1px;stroke-linecap:butt;stroke-linejoin:miter;stroke-opacity:1"
         d="m 60.883095,70.392492 1.518083,12.624053"
         id="path4138"
         inkscape:connector-curvature="0" />
      <path
         style="fill:none;stroke:#000000;stroke-width:1px;stroke-linecap:butt;stroke-linejoin:miter;stroke-opacity:1"
         d="m 66.795627,65.278951 -0.399495,12.94365"
         id="path4140"
         inkscape:connector-curvature="0" />
      <path
         inkscape:connector-curvature="0"
         id="path4185"
         d="m 58.505038,73.089339 5.254424,11.36539"
         style="fill:none;stroke:#000000;stroke-width:1px;stroke-linecap:butt;stroke-linejoin:miter;stroke-opacity:1" />
      <path
         inkscape:connector-curvature="0"
         id="path4187"
         d="m 60.883095,70.392492 -0.0052,7.103627"
         style="fill:none;stroke:#000000;stroke-width:1px;stroke-linecap:butt;stroke-linejoin:miter;stroke-opacity:1" />
      <path
         inkscape:connector-curvature="0"
         id="path4189"
         d="m 59.46549,72.552616 2.542373,7.20339"
         style="fill:none;stroke:#000000;stroke-width:1px;stroke-linecap:butt;stroke-linejoin:miter;stroke-opacity:1" />
    </g>
  </g>
</svg>
